<svg width="8" height="10" viewBox="0 0 8 10" fill="none" xmlns="http://www.w3.org/2000/svg">
<path d="M4.03038 9.9343C3.39247 9.39018 2.80118 8.79366 2.2627 8.15097C1.45462 7.18582 0.495026 5.74845 0.495026 4.37875C0.49431 2.94822 1.35576 1.65824 2.67738 1.11077C3.99901 0.563298 5.52031 0.866246 6.53139 1.87825C7.19627 2.54017 7.56872 3.44056 7.56575 4.37875C7.56575 5.74845 6.60614 7.18582 5.79806 8.15097C5.25958 8.79366 4.66829 9.39018 4.03038 9.9343ZM4.03038 2.8636C3.48907 2.8636 2.98888 3.15238 2.71822 3.62117C2.44756 4.08996 2.44756 4.66754 2.71822 5.13633C2.98888 5.60512 3.48907 5.8939 4.03038 5.8939C4.86718 5.8939 5.54553 5.21554 5.54553 4.37875C5.54553 3.54196 4.86718 2.8636 4.03038 2.8636Z" fill="#79819A"/>
</svg>
